<?xml version="1.0" encoding="UTF-8"?>
<!DOCTYPE svg PUBLIC "-//W3C//DTD SVG 1.1//EN" "http://www.w3.org/Graphics/SVG/1.1/DTD/svg11.dtd">
<!-- Creator: CorelDRAW 2020 (64-Bit) -->
<svg xmlns="http://www.w3.org/2000/svg" xml:space="preserve" width="1386px" height="484px" version="1.1" style="shape-rendering:geometricPrecision; text-rendering:geometricPrecision; image-rendering:optimizeQuality; fill-rule:evenodd; clip-rule:evenodd"
viewBox="0 0 2377 831"
 xmlns:xlink="http://www.w3.org/1999/xlink"
 xmlns:xodm="http://www.corel.com/coreldraw/odm/2003">
 <defs>
  <style type="text/css">
   <![CDATA[
    .fil0 {fill:#393185}
    .fil1 {fill:#393185;fill-rule:nonzero}
   ]]>
  </style>
 </defs>
 <g id="Слой_x0020_1">
  <metadata id="CorelCorpID_0Corel-Layer"/>
  <g id="_1646069162816">
   <path class="fil0" d="M1318 2c144,0 261,117 261,261 0,144 -117,261 -261,261 -144,0 -261,-117 -261,-261 0,-144 117,-261 261,-261zm-1318 519l0 -431c0,-56 26,-85 79,-85l185 0c116,0 174,56 174,167l0 348 -82 0 0 -334c0,-77 -34,-116 -103,-116l-141 0c-10,0 -18,2 -23,7 -5,5 -7,13 -7,26l0 417 -82 0zm974 0l-270 0c-72,0 -121,-21 -147,-64 -26,-43 -39,-107 -39,-192 0,-96 18,-164 53,-205 35,-41 96,-61 182,-61 75,0 132,15 173,45 41,30 61,82 61,155 0,31 -6,54 -18,69 -12,15 -31,22 -59,22l-308 0c0,24 1,45 4,62 3,17 8,34 16,51 8,17 20,30 37,38 17,9 37,13 62,13l252 0 0 66zm-371 -297l275 0c16,0 23,-9 23,-26l0 -4c0,-86 -49,-128 -148,-128 -54,0 -92,12 -116,36 -23,24 -35,65 -35,123zm1059 297l0 -431c0,-56 26,-85 79,-85l461 0c116,0 174,56 174,167l0 348 -82 0 0 -334c0,-77 -34,-116 -103,-116l-131 0 0 450 -82 0 0 -450 -204 0c-10,0 -18,2 -23,7 -5,5 -7,13 -7,26l0 417 -82 0zm-345 -437c99,0 179,80 179,179 0,99 -80,179 -179,179 -99,0 -179,-80 -179,-179 0,-99 80,-179 179,-179z"/>
   <path class="fil1" d="M1058 831l0 -33 124 0c14,0 21,-8 21,-24 0,-12 -7,-21 -22,-25l-88 -28c-14,-4 -24,-11 -29,-21 -6,-9 -8,-22 -8,-38 0,-17 4,-30 13,-39 9,-10 21,-15 38,-15l128 0 0 33 -117 0c-6,0 -10,2 -14,5 -3,4 -5,9 -5,17 0,6 1,11 4,15 2,4 8,7 16,10l82 26c17,5 29,12 36,21 7,9 11,21 11,38 0,17 -4,31 -12,42 -8,10 -20,16 -36,16l-140 0zm398 0l-42 0 0 -190 -87 0 0 -33 216 0 0 33 -87 0 0 190zm359 -33l0 33 -146 0c-22,0 -33,-11 -33,-33l0 -156c0,-22 11,-33 33,-33l145 0 0 33 -120 0c-6,0 -11,1 -13,3 -2,2 -3,6 -3,13l0 43 132 0 0 33 -132 0 0 48c0,6 1,11 3,13 2,2 6,3 13,3l121 0zm282 0l0 33 -146 0c-22,0 -33,-11 -33,-33l0 -156c0,-22 11,-33 33,-33l145 0 0 33 -120 0c-6,0 -11,1 -13,3 -2,2 -3,6 -3,13l0 43 132 0 0 33 -132 0 0 48c0,6 1,11 3,13 2,2 6,3 13,3l121 0zm281 33l-145 0c-22,0 -33,-11 -33,-33l0 -190 42 0 0 174c0,6 1,11 3,13 2,2 6,3 13,3l120 0 0 33z"/>
  </g>
 </g>
</svg>
