<?xml version="1.0" encoding="UTF-8"?>
<!DOCTYPE svg PUBLIC "-//W3C//DTD SVG 1.1//EN" "http://www.w3.org/Graphics/SVG/1.1/DTD/svg11.dtd">
<!-- Creator: CorelDRAW 2020 (64-Bit) -->
<svg xmlns="http://www.w3.org/2000/svg" xml:space="preserve" width="366.453mm" height="128.213mm" version="1.1" style="shape-rendering:geometricPrecision; text-rendering:geometricPrecision; image-rendering:optimizeQuality; fill-rule:evenodd; clip-rule:evenodd"
viewBox="0 0 36660.77 12826.65"
 xmlns:xlink="http://www.w3.org/1999/xlink"
 xmlns:xodm="http://www.corel.com/coreldraw/odm/2003">
 <defs>
  <style type="text/css">
   <![CDATA[
    .fil0 {fill:#FEFEFE}
    .fil1 {fill:#FEFEFE;fill-rule:nonzero}
   ]]>
  </style>
 </defs>
 <g id="Слой_x0020_1">
  <metadata id="CorelCorpID_0Corel-Layer"/>
  <g id="_1646069162816">
   <path class="fil0" d="M20319.12 46.25c2219.99,0 4023.74,1803.75 4023.74,4023.74 0,2219.99 -1803.75,4023.74 -4023.74,4023.74 -2219.99,0 -4023.74,-1803.75 -4023.74,-4023.74 0,-2219.99 1803.75,-4023.74 4023.74,-4023.74zm-20319.12 8001.24l0 -6644.57c0,-863.33 400.83,-1310.41 1217.91,-1310.41l2852.08 0c1788.33,0 2682.5,863.33 2682.5,2574.57l0 5364.99 -1264.16 0 0 -5149.16c0,-1187.08 -524.17,-1788.33 -1587.92,-1788.33l-2173.74 0c-154.16,0 -277.5,30.83 -354.58,107.92 -77.08,77.08 -107.92,200.41 -107.92,400.83l0 6428.74 -1264.16 0 -0.01 15.43zm15015.8 0l-4162.49 0c-1110,0 -1865.41,-323.75 -2266.24,-986.67 -400.83,-662.92 -601.25,-1649.58 -601.25,-2960 0,-1479.99 277.5,-2528.32 817.08,-3160.41 539.59,-632.09 1479.99,-940.42 2805.83,-940.42 1156.25,0 2035,231.25 2667.08,693.75 632.09,462.49 940.42,1264.16 940.42,2389.58 0,477.91 -92.5,832.5 -277.5,1063.75 -185,231.25 -477.91,339.16 -909.58,339.16l-4748.33 0c0,370 15.42,693.75 61.67,955.83 46.25,262.08 123.33,524.17 246.66,786.25 123.33,262.08 308.33,462.49 570.42,585.84 262.08,138.75 570.42,200.41 955.83,200.41l3884.99 0 0 1017.5 15.41 15.42zm-5719.57 -4578.74l4239.57 0c246.66,0 354.58,-138.75 354.58,-400.83l0 -61.67c0,-1325.83 -755.42,-1973.33 -2281.66,-1973.33 -832.5,0 -1418.33,185 -1788.33,555 -354.58,370 -539.59,1002.08 -539.59,1896.25l15.43 -15.43zm16326.22 4578.74l0 -6644.57c0,-863.33 400.83,-1310.41 1217.91,-1310.41l7107.07 0c1788.33,0 2682.5,863.33 2682.5,2574.57l0 5364.99 -1264.16 0 0 -5149.16c0,-1187.08 -524.17,-1788.33 -1587.92,-1788.33l-2019.58 0 0 6937.49 -1264.16 0 0 -6937.49 -3144.99 0c-154.16,0 -277.5,30.83 -354.58,107.92 -77.08,77.08 -107.92,200.41 -107.92,400.83l0 6428.74 -1264.16 0 -0.01 15.43zm-5318.75 -6737.06c1526.24,0 2759.58,1233.33 2759.58,2759.58 0,1526.24 -1233.33,2759.58 -2759.58,2759.58 -1526.24,0 -2759.58,-1233.33 -2759.58,-2759.58 0,-1526.24 1233.33,-2759.58 2759.58,-2759.58z"/>
   <path class="fil1" d="M16310.8 12826.65l0 -508.74 1911.66 0c215.83,0 323.75,-123.33 323.75,-370 0,-185 -107.92,-323.75 -339.16,-385.41l-1356.66 -431.66c-215.83,-61.67 -370,-169.58 -447.08,-323.75 -92.5,-138.75 -123.33,-339.16 -123.33,-585.84 0,-262.08 61.67,-462.49 200.41,-601.25 138.75,-154.16 323.75,-231.25 585.84,-231.25l1973.33 0 0 508.74 -1803.75 0c-92.5,0 -154.16,30.83 -215.83,77.08 -46.25,61.67 -77.08,138.75 -77.08,262.08 0,92.5 15.42,169.58 61.67,231.25 30.83,61.67 123.33,107.92 246.66,154.16l1264.16 400.83c262.08,77.08 447.08,185 555,323.75 107.92,138.75 169.58,323.75 169.58,585.84 0,262.08 -61.67,477.91 -185,647.5 -123.33,154.16 -308.33,246.66 -555,246.66l-2158.33 0 -30.84 0zm6135.81 0l-647.5 0 0 -2929.16 -1341.24 0 0 -508.74 3329.99 0 0 508.74 -1341.24 0 0 2929.16zm5534.58 -508.75l0 508.74 -2250.83 0c-339.16,0 -508.74,-169.58 -508.74,-508.74l0 -2404.99c0,-339.16 169.58,-508.74 508.74,-508.74l2235.41 0 0 508.74 -1850 0c-92.5,0 -169.58,15.42 -200.41,46.25 -30.83,30.83 -46.25,92.5 -46.25,200.41l0 662.92 2035 0 0 508.74 -2035 0 0 740c0,92.5 15.42,169.58 46.25,200.41 30.83,30.83 92.5,46.25 200.41,46.25l1865.41 0zm4347.49 0l0 508.74 -2250.83 0c-339.16,0 -508.74,-169.58 -508.74,-508.74l0 -2404.99c0,-339.16 169.58,-508.74 508.74,-508.74l2235.41 0 0 508.74 -1850 0c-92.5,0 -169.58,15.42 -200.41,46.25 -30.83,30.83 -46.25,92.5 -46.25,200.41l0 662.92 2035 0 0 508.74 -2035 0 0 740c0,92.5 15.42,169.58 46.25,200.41 30.83,30.83 92.5,46.25 200.41,46.25l1865.41 0zm4332.07 508.75l-2235.41 0c-339.16,0 -508.74,-169.58 -508.74,-508.74l0 -2929.16 647.5 0 0 2682.5c0,92.5 15.42,169.58 46.25,200.41 30.83,30.83 92.5,46.25 200.41,46.25l1850 0 0 508.74 -0.01 0z"/>
  </g>
 </g>
</svg>
